<?xml version="1.0" encoding="UTF-8" standalone="no"?>
<svg
   xmlns:dc="http://purl.org/dc/elements/1.1/"
   xmlns:cc="http://creativecommons.org/ns#"
   xmlns:rdf="http://www.w3.org/1999/02/22-rdf-syntax-ns#"
   xmlns:svg="http://www.w3.org/2000/svg"
   xmlns="http://www.w3.org/2000/svg"
   xmlns:sodipodi="http://sodipodi.sourceforge.net/DTD/sodipodi-0.dtd"
   xmlns:inkscape="http://www.inkscape.org/namespaces/inkscape"
   height="169.5"
   width="462.23822"
   version="1.1"
   x="0px"
   y="0px"
   viewBox="0 0 154.07941 56.5"
   enable-background="new 0 0 100 100"
   xml:space="preserve"
   id="svg1555"
   sodipodi:docname="alatele.svg"
   inkscape:version="0.92.4 (5da689c313, 2019-01-14)"
   style="fill:#74624f"
   inkscape:export-filename="/home/pykiss/proyectos/alatele/logo.png"
   inkscape:export-xdpi="398.72568"
   inkscape:export-ydpi="398.72568"><metadata
     id="metadata1561"><rdf:RDF><cc:Work
         rdf:about=""><dc:format>image/svg+xml</dc:format><dc:type
           rdf:resource="http://purl.org/dc/dcmitype/StillImage" /><dc:title></dc:title></cc:Work></rdf:RDF></metadata><defs
     id="defs1559" /><sodipodi:namedview
     pagecolor="#ffffff"
     bordercolor="#666666"
     borderopacity="1"
     objecttolerance="10"
     gridtolerance="10"
     guidetolerance="10"
     inkscape:pageopacity="0"
     inkscape:pageshadow="2"
     inkscape:window-width="1916"
     inkscape:window-height="1055"
     id="namedview1557"
     showgrid="false"
     inkscape:zoom="0.78666667"
     inkscape:cx="64.636531"
     inkscape:cy="84.9"
     inkscape:window-x="1920"
     inkscape:window-y="0"
     inkscape:window-maximized="0"
     inkscape:current-layer="svg1555"
     fit-margin-top="0"
     fit-margin-left="0"
     fit-margin-right="0"
     fit-margin-bottom="0" /><g
     id="g1553"
     style="fill:#000"
     transform="translate(68.579408,-21.8)"><path
       d="m 17,68.9 c -0.7,0 -1.3,-0.3 -1.8,-0.7 v 0 c -0.5,-0.5 -0.7,-1.1 -0.7,-1.8 v 0 -42.1 c 0,-0.7 0.3,-1.3 0.7,-1.8 v 0 C 15.7,22 16.3,21.8 17,21.8 v 0 h 66 c 0.7,0 1.3,0.3 1.8,0.7 v 0 c 0.5,0.5 0.7,1.1 0.7,1.8 v 0 42.1 c 0,0.7 -0.3,1.3 -0.7,1.8 v 0 c -0.5,0.5 -1.1,0.7 -1.8,0.7 v 0 z m 2.5,-5.1 h 60.9 v -37 H 19.5 Z"
       id="path1549"
       style="fill:#000"
       inkscape:connector-curvature="0" /><path
       d="M 37.5,78.3 C 36.1,78.3 35,77.2 35,75.8 v 0 c 0,-1.4 1.1,-2.5 2.5,-2.5 v 0 h 25 c 1.4,0 2.5,1.1 2.5,2.5 v 0 c 0,1.4 -1.1,2.5 -2.5,2.5 v 0 z"
       id="path1551"
       style="fill:#000"
       inkscape:connector-curvature="0" /></g><g
     transform="matrix(-39.776124,14.041274,14.041274,39.776124,63.912791,-21.835038)"
     style="fill:#000;image-rendering:optimizeQuality;shape-rendering:geometricPrecision;text-rendering:geometricPrecision"
     id="g2763"><path
       inkscape:connector-curvature="0"
       class="fil0"
       d="M 0.149792,1.62716 C 0.1642089,1.603551 0.1692905,1.589518 0.156583,1.581094 0.147677,1.592477 0.1389515,1.603453 0.130452,1.614068 Z M 0.624939,0.881465 C 1.450992,0.629738 1.608034,0.19739 1.606814,3e-6 1.334904,0.299166 1.048019,0.602485 0.509384,0.801762 0.362038,0.8470076 0.281831,0.93707 0.288719,1.069261 0.265908,1.25065 0.180619,1.422982 -2e-6,1.525926 l 0.025589,0.0173 C 0.181206,1.493057 0.301352,1.3513952 0.37635,1.1759532 0.4448207,0.9255062 0.4159343,0.9491382 0.624937,0.8814652 Z M 0.45031,1.048919 c 0.065354,0.00684 0.124354,0.005 0.1784,0.00426 0.514317,-0.00707 0.640327,-0.29725103 0.757002,-0.46874003 -0.293366,0.20408 -0.576118,0.2911 -0.857393,0.361792 C 0.4807546,0.96623497 0.4505884,1.0053827 0.45031,1.048919 Z M 0.4233057,1.162349 C 0.5720367,1.150763 0.6937107,1.281222 0.8973307,1.232047 0.9926175,1.209025 1.0982937,1.15138 1.2232577,0.986215 1.0047387,1.0584876 0.7840217,1.113686 0.5035887,1.097861 0.449309,1.100411 0.4350201,1.142903 0.4233057,1.162349 Z M 0.3948785,1.228396 c 0.187442,0.058029 0.315575,0.384317 0.634561,0.060709 -0.130783,0.0083 -0.338409,0.00281 -0.548052,-0.092915 C 0.435916,1.183226 0.4095516,1.19752 0.3948785,1.228396 Z M 0.373543,1.2711644 c 0.0552509,0.014545 0.0371074,0.182383 0.225927,0.294744 0.0592033,0.035218 0.101407,0.00868 0.219716,-0.045472 C 0.562769,1.4757258 0.451944,1.1962639 0.373543,1.2711644 Z m 0.226891,0.410117 C 0.408686,1.7186448 0.394909,1.589036 0.376969,1.4604884 0.370487,1.4140984 0.373137,1.3715554 0.3530814,1.3317984 0.422847,1.2795894 0.4117727,1.5024744 0.600434,1.6812814 Z m -0.192892,0.11142 C 0.401489,1.7917829 0.3957751,1.7907614 0.3903095,1.7896414 L 0.3000742,1.7286498 c -0.0265903,-0.063494 0.008628,-0.172107 0.0183768,-0.332823 0.060453,-0.027637 0.00725,0.248407 0.089091,0.3968746 z M 0.248911,1.694072 C 0.258788,1.595766 0.2846106,1.503182 0.250823,1.505531 0.257154,1.546674 0.2243833,1.60544 0.2043051,1.663958 Z M 0.1644199,1.6370068 c 0.0127079,-0.023782 0.0268161,-0.049251 0.0416696,-0.076451 0.0163291,0.00676 0.002627,0.042151 -0.0164119,0.093503 z"
       id="path2761"
       style="fill:#000" /></g><text
     xml:space="preserve"
     style="font-style:normal;font-variant:normal;font-weight:normal;font-stretch:normal;font-size:13.33333302px;line-height:1.25;font-family:'Nova Flat';-inkscape-font-specification:'Nova Flat';letter-spacing:0px;word-spacing:0px;fill:#000;fill-opacity:1;stroke:none;stroke-width:0.33333334"
     x="21.121782"
     y="-89.596611"
     id="text3334"><tspan
       sodipodi:role="line"
       id="tspan3332"
       x="21.121782"
       y="-77.325844"
       style="stroke-width:0.33333334" /></text>
<text
     xml:space="preserve"
     style="font-style:normal;font-variant:normal;font-weight:normal;font-stretch:normal;font-size:13.33333302px;line-height:1.25;font-family:'Nova Flat';-inkscape-font-specification:'Nova Flat';letter-spacing:0px;word-spacing:0px;fill:#000;fill-opacity:1;stroke:none;stroke-width:0.33333334"
     x="49.935341"
     y="-90.020348"
     id="text3338"><tspan
       sodipodi:role="line"
       id="tspan3336"
       x="49.935341"
       y="-77.74958"
       style="stroke-width:0.33333334" /></text>
</svg>
