<?xml version="1.0" standalone="no"?>
<!DOCTYPE svg PUBLIC "-//W3C//DTD SVG 20010904//EN"
 "http://www.w3.org/TR/2001/REC-SVG-20010904/DTD/svg10.dtd">
<svg version="1.0" xmlns="http://www.w3.org/2000/svg"
 width="700.000000pt" height="700.000000pt" viewBox="0 0 700.000000 700.000000"
 preserveAspectRatio="xMidYMid meet">
<metadata>
Created by potrace 1.11, written by Peter Selinger 2001-2013
</metadata>
<g transform="translate(0.000000,700.000000) scale(0.100000,-0.100000)"
fill="#000000" stroke="none">
<path d="M163 5560 c-63 -26 -102 -61 -132 -121 l-31 -62 0 -2132 0 -2131 26
-53 c30 -60 85 -105 148 -122 63 -17 6609 -16 6662 1 63 20 104 58 135 124
l29 62 -2 2140 -3 2141 -30 49 c-24 38 -45 56 -94 81 l-63 33 -3311 -1 c-1863
0 -3322 -4 -3334 -9z m647 -623 c172 -93 578 -291 810 -395 227 -102 520 -210
827 -306 89 -28 449 -122 501 -131 18 -3 63 -12 100 -20 101 -21 317 -57 422
-70 30 -4 63 -9 72 -10 9 -2 48 -6 85 -10 37 -3 84 -8 103 -10 43 -5 160 -14
260 -21 41 -2 171 -6 288 -9 307 -6 409 -24 557 -96 157 -76 277 -218 338
-397 22 -64 130 -248 205 -349 122 -163 330 -356 480 -446 165 -97 355 -172
525 -205 l37 -7 -27 -39 -28 -38 -95 6 c-113 7 -141 11 -242 37 -265 66 -509
201 -763 420 -149 128 -216 205 -345 394 -177 259 -217 306 -301 350 -72 38
-134 44 -399 38 -511 -11 -888 -7 -1065 11 -16 2 -64 7 -105 10 -41 4 -88 9
-105 11 -16 2 -59 7 -95 10 -36 4 -67 8 -70 10 -5 3 -57 12 -115 20 -18 2
-112 19 -160 29 -252 51 -588 152 -752 227 -24 10 -45 19 -48 19 -17 0 -283
141 -374 197 -180 113 -281 193 -426 338 -171 171 -331 408 -380 564 -8 25 12
15 285 -132z m1210 -1318 c52 -11 109 -22 125 -25 17 -2 37 -7 45 -9 8 -2 33
-6 55 -9 22 -4 63 -10 90 -16 28 -5 88 -14 135 -20 47 -6 96 -13 110 -15 14
-2 58 -7 98 -10 41 -4 86 -8 100 -10 213 -26 925 -27 1240 0 34 3 90 7 125 10
34 3 100 8 147 12 47 4 106 7 133 6 89 -3 198 -58 254 -130 51 -65 50 -70 -15
-99 -278 -124 -729 -260 -996 -299 -23 -4 -54 -9 -71 -11 -82 -13 -455 -12
-545 1 -258 40 -475 111 -673 222 -33 18 -63 33 -68 33 -5 0 -9 5 -9 10 0 6
-5 10 -10 10 -25 0 -479 326 -578 415 -8 7 37 -1 100 -17 62 -16 156 -38 208
-49z m2763 -488 c23 -10 60 -34 82 -54 l40 -35 -30 -8 c-101 -25 -236 -109
-446 -276 -272 -216 -406 -290 -634 -347 -66 -17 -154 -24 -275 -24 -268 1
-544 93 -872 290 -60 36 -107 68 -104 70 2 3 55 6 118 8 141 4 365 15 398 20
14 2 61 7 105 10 44 4 87 8 95 10 8 2 47 6 85 11 39 4 72 8 75 9 3 1 30 5 60
9 30 5 62 10 70 11 8 1 35 6 60 10 52 9 51 8 150 30 91 20 89 19 170 40 36 8
74 18 85 20 47 11 346 106 390 124 247 102 293 111 378 72z m190 -195 c77 -33
77 -36 5 -107 -80 -79 -174 -206 -293 -398 -220 -353 -418 -495 -695 -499
-153 -1 -318 38 -523 125 l-108 46 143 47 c329 109 681 280 883 428 6 4 33 22
60 41 54 38 223 175 295 241 89 81 165 106 233 76z m158 -142 c5 -2 0 -19 -11
-37 -20 -35 -28 -87 -35 -244 -3 -56 -7 -118 -10 -138 -3 -19 -7 -52 -10 -72
-36 -249 -218 -560 -369 -629 -48 -22 -72 -26 -154 -27 -104 -1 -359 18 -369
27 -2 2 21 18 50 36 214 137 377 339 567 705 150 290 184 341 249 375 32 16
70 18 92 4z m132 -226 c3 -46 7 -92 10 -104 3 -11 12 -49 21 -85 9 -35 18 -73
20 -84 3 -11 11 -54 20 -95 79 -385 45 -552 -136 -666 -44 -28 -156 -70 -212
-79 -17 -3 -39 -8 -48 -11 -15 -4 -13 6 13 63 63 140 128 355 145 478 1 11 5
43 9 70 3 28 8 64 10 80 4 28 7 79 20 290 8 115 14 154 31 187 15 29 27 36 65
37 26 1 27 0 32 -81z m192 -147 c15 -36 82 -175 150 -310 139 -278 149 -300
171 -385 27 -102 24 -113 -72 -243 -77 -105 -118 -152 -134 -153 -3 0 -5 57
-5 128 0 189 -23 314 -127 677 -68 238 -81 324 -53 355 24 27 35 16 70 -69z
m265 -180 c0 -10 11 -34 24 -53 13 -19 25 -40 27 -46 2 -5 52 -67 112 -135 59
-69 107 -128 107 -131 0 -3 -20 -33 -44 -66 l-44 -60 -79 153 c-138 268 -156
314 -131 344 15 19 28 16 28 -6z m279 -181 c39 -36 71 -69 71 -75 0 -5 -11
-23 -23 -39 l-24 -29 -54 69 c-73 92 -89 118 -89 149 l0 26 24 -18 c13 -11 56
-48 95 -83z m109 49 l43 -27 -24 -27 -23 -27 -36 40 c-26 28 -35 47 -31 61 3
12 10 18 17 14 6 -4 30 -19 54 -34z"/>
<path d="M2248 489 c-140 -15 -223 -106 -222 -244 0 -101 42 -171 129 -218
l40 -22 1305 0 1305 0 44 25 c147 85 172 279 50 398 -70 68 1 65 -1364 66
-676 1 -1256 -2 -1287 -5z"/>
</g>
</svg>
