<?xml version="1.0" encoding="UTF-8" standalone="no"?>
<!-- Generator: Adobe Illustrator 19.0.0, SVG Export Plug-In . SVG Version: 6.00 Build 0)  -->

<svg
   xmlns:dc="http://purl.org/dc/elements/1.1/"
   xmlns:cc="http://creativecommons.org/ns#"
   xmlns:rdf="http://www.w3.org/1999/02/22-rdf-syntax-ns#"
   xmlns:svg="http://www.w3.org/2000/svg"
   xmlns="http://www.w3.org/2000/svg"
   xmlns:xlink="http://www.w3.org/1999/xlink"
   xmlns:sodipodi="http://sodipodi.sourceforge.net/DTD/sodipodi-0.dtd"
   xmlns:inkscape="http://www.inkscape.org/namespaces/inkscape"
   version="1.1"
   id="Capa_1"
   x="0px"
   y="0px"
   viewBox="203 -32.6 494.661 104.5729"
   xml:space="preserve"
   sodipodi:docname="boomerang.svg"
   width="494.66098"
   height="104.57291"
   inkscape:version="0.92.4 (5da689c313, 2019-01-14)"><metadata
   id="metadata122"><rdf:RDF><cc:Work
       rdf:about=""><dc:format>image/svg+xml</dc:format><dc:type
         rdf:resource="http://purl.org/dc/dcmitype/StillImage" /><dc:title></dc:title></cc:Work></rdf:RDF></metadata><defs
   id="defs120" /><sodipodi:namedview
   pagecolor="#ffffff"
   bordercolor="#666666"
   borderopacity="1"
   objecttolerance="10"
   gridtolerance="10"
   guidetolerance="10"
   inkscape:pageopacity="0"
   inkscape:pageshadow="2"
   inkscape:window-width="1916"
   inkscape:window-height="1055"
   id="namedview118"
   showgrid="false"
   fit-margin-top="0"
   fit-margin-left="0"
   fit-margin-right="0"
   fit-margin-bottom="0"
   inkscape:pagecheckerboard="true"
   inkscape:zoom="3.2255655"
   inkscape:cx="247.34999"
   inkscape:cy="52.299995"
   inkscape:window-x="1920"
   inkscape:window-y="0"
   inkscape:window-maximized="0"
   inkscape:current-layer="Capa_1" />
<style
   type="text/css"
   id="style93">
	.st0{clip-path:url(#SVGID_2_);fill:#FFFFFF;}
	.st1{clip-path:url(#SVGID_4_);fill:#FFFFFF;}
</style>
<g
   id="g115"
   transform="translate(-20.2,-20.52709)">
	<g
   id="g103">
		<defs
   id="defs96">
			<rect
   id="SVGID_1_"
   x="223.2"
   y="-12.1"
   width="494.70001"
   height="104.6" />
		</defs>
		<clipPath
   id="SVGID_2_">
			<use
   xlink:href="#SVGID_1_"
   style="overflow:visible"
   id="use98"
   x="0"
   y="0"
   width="100%"
   height="100%" />
		</clipPath>
		<path
   class="st0"
   d="m 223.2,62.7 c 2.3,0.2 6.1,0.5 10.8,0.5 8.9,0 14.8,-1.5 18.4,-4.6 2.6,-2.3 4.5,-5.6 4.5,-9.9 0,-7.8 -6.3,-11.4 -10.6,-12.4 V 36 c 5.4,-1.8 8.7,-6.1 8.7,-10.8 0,-4 -1.8,-6.9 -4.4,-8.9 -3.2,-2.5 -7.4,-3.6 -14.5,-3.6 -4.8,0 -9.8,0.5 -12.9,1.1 z m 6.7,-44.4 c 1.2,-0.3 3.1,-0.5 6.6,-0.5 6.6,0 11.7,1.9 11.7,8.1 0,4.7 -4,8.2 -11.4,8.2 h -6.9 z m 0,20.8 h 6.3 c 7.5,0 13.7,2.7 13.7,9.4 0,7.5 -6.8,9.6 -13.8,9.6 -2.7,0 -4.7,-0.1 -6.2,-0.4 0,0.1 0,-18.6 0,-18.6 z m 52.3,24.5 c 9.5,0 19.6,-6.1 19.6,-19.1 0,-10.4 -7.5,-18.2 -19,-18.2 -11,0 -19.6,7.4 -19.6,19 -0.1,10.9 8.1,18.3 19,18.3 z m 0,-4.9 C 275.6,58.7 270,53.5 270,45 c 0,-7.1 4,-13.8 12.5,-13.8 8.6,0 12.3,7.3 12.3,13.6 0,8.9 -5.8,13.9 -12.6,13.9 m 44.3,4.9 c 9.5,0 19.6,-6.1 19.6,-19.1 0,-10.4 -7.5,-18.2 -19,-18.2 -11,0 -19.6,7.4 -19.6,19 0,10.9 8.2,18.3 19,18.3 z m 0.1,-4.9 c -6.6,0 -12.2,-5.2 -12.2,-13.7 0,-7.1 4,-13.8 12.5,-13.8 8.6,0 12.3,7.3 12.3,13.6 0,8.9 -5.8,13.9 -12.6,13.9 m 28.3,4 h 6.5 V 41.6 c 0,-1.1 0.2,-2.3 0.6,-3.2 1.2,-3.1 4.4,-6.7 9,-6.7 5.1,0 8.2,4 8.2,10.3 v 20.7 h 6.5 V 41 c 0,-1.2 0.3,-2.3 0.6,-3.3 1.3,-3 4.4,-6 8.5,-6 5.5,0 8.7,4 8.7,11.6 V 62.7 H 410 V 42.6 c 0,-13.5 -8.1,-16.4 -12.8,-16.4 -3.9,0 -6.4,1 -8.8,2.9 -1.5,1.1 -2.9,2.7 -4.2,4.8 h -0.1 c -1.5,-4.3 -5.5,-7.6 -10.9,-7.6 -6.6,0 -10.1,3.5 -12.3,7 h -0.2 l -0.4,-6.1 h -5.8 c 0.2,3 0.3,6.2 0.3,9.8 z m 97.8,-16.4 c 0.2,-0.6 0.3,-1.6 0.3,-2.9 0,-6.1 -3.1,-17.1 -16.1,-17.1 -11.5,0 -18.4,8.8 -18.4,19.3 0,10.7 7.3,18 19,18 6.6,0 10.9,-1.5 13.2,-2.4 l -1.2,-4.8 c -2.7,1.1 -5.8,2 -11.2,2 -7.3,0 -13.3,-4 -13.4,-12.1 z m -27.6,-4.8 c 0.6,-4.4 3.8,-10.6 11.3,-10.6 8.8,0 10.2,7.5 10.1,10.6 z m 36.6,21.2 h 6.7 V 44 c 0,-1 0.1,-2.1 0.3,-3 1,-5.1 4.3,-8.5 9.2,-8.5 1,0 1.8,0.1 2.5,0.2 v -6.1 c -0.6,-0.2 -1.3,-0.2 -2,-0.2 -4.6,0 -8.9,3.1 -10.7,8.3 h -0.2 l -0.2,-7.4 h -5.9 c 0.2,3.6 0.3,7.1 0.3,11.7 z m 52.7,-21.3 c 0,-6.8 -2.5,-15.2 -14.6,-15.2 -4.8,0 -9.5,1.2 -12.9,3.4 l 1.6,4.4 c 2.7,-1.9 6.7,-2.9 10.4,-2.9 8.2,-0.1 8.9,6 8.9,8.2 V 40 c -15.7,-0.2 -23.4,4.8 -23.4,13.4 0,4.8 3.7,10.2 11.7,10.2 5.7,0 10.1,-2.9 12.1,-5.6 h 0.2 l 0.6,4.7 h 6.1 c -0.4,-2.5 -0.6,-5.5 -0.6,-8.7 V 41.4 Z m -6.5,9 c 0,0.6 -0.1,1.4 -0.4,2.1 -1.2,2.9 -4.4,6.2 -9.8,6.2 -3.7,0 -6.6,-2.1 -6.6,-6.2 0,-6.6 8.4,-8.1 16.7,-7.9 z m 17.8,12.3 h 6.7 V 41.5 c 0,-1 0.2,-2.1 0.5,-2.9 1.3,-3.5 4.9,-6.9 9.8,-6.9 6.7,0 9.3,5 9.3,11.3 v 19.8 h 6.7 V 42.3 c 0,-13.4 -9,-16.1 -13.8,-16.1 -6.5,0 -11.1,3.8 -13,7.2 h -0.2 l -0.4,-6.3 h -6 c 0.2,3 0.3,6.2 0.3,9.8 v 25.8 z m 77.8,-26.3 c 0,-3.9 0.1,-6.7 0.3,-9.3 h -5.9 l -0.2,5.8 h -0.2 c -1.8,-3.3 -5.6,-6.7 -12.6,-6.7 -9.2,0 -17.6,7.3 -17.6,19 0,9.6 7,17.4 16.7,17.4 6.3,0 10.6,-3 12.8,-6.5 h 0.2 v 4 c 0,9.4 -5.5,13 -12.9,13 -4.9,0 -9,-1.5 -11.7,-3.2 l -1.7,5.1 c 3.1,2.2 8.5,3.3 13.2,3.3 4.6,0 10.1,-1 14.1,-4.4 3.8,-3.3 5.6,-8.8 5.6,-16.6 V 36.4 Z m -6.7,10.3 c 0,1.2 -0.2,2.5 -0.6,3.5 -1.5,4.1 -5.5,7.2 -10.3,7.2 -8.1,0 -11.9,-6.4 -11.9,-12.6 0,-8.4 5.1,-13.5 12,-13.5 5.3,0 9,3.1 10.5,7.3 0.2,1 0.4,1.9 0.4,3 v 5.1 z m 45.7,-33.9 c 24.8,-22.4 54.4,-31.4 68.2,-19.8 14.8,12.4 5.9,43.7 -19.7,69.7 -25.6,26 -58.5,37.1 -73.3,24.8 -13.5,-11.3 -7.3,-38.4 13.4,-62.9 v 38.3 h 6.8 V 18.3 h 17.4 v -5.5 z m 39.3,50.1 20,-50.1 h -7.2 L 685,38.1 c -2.6,6.7 -4.9,12.8 -6.5,18.4 -1.7,-5.6 -3.6,-11.4 -6.1,-18.5 l -8.7,-25.1 h -7.3 L 674.5,63 Z"
   clip-path="url(#SVGID_2_)"
   id="path101"
   inkscape:connector-curvature="0"
   style="fill:#ffffff" />
	</g>
	<g
   id="g113">
		<defs
   id="defs106">
			<rect
   id="SVGID_3_"
   x="223.2"
   y="-12.1"
   width="494.70001"
   height="104.6" />
		</defs>
		<clipPath
   id="SVGID_4_">
			<use
   xlink:href="#SVGID_3_"
   style="overflow:visible"
   id="use108"
   x="0"
   y="0"
   width="100%"
   height="100%" />
		</clipPath>
		<path
   class="st1"
   d="m 631.2,24.6 v -6.3 h -17.3 v -5.5 h 28.7 c -1.7,1.6 -3.4,3.2 -5.1,4.9 -2.3,2.3 -4.3,4.6 -6.3,6.9"
   clip-path="url(#SVGID_4_)"
   id="path111"
   inkscape:connector-curvature="0"
   style="fill:#ffffff" />
	</g>
</g>
</svg>