<?xml version="1.0" encoding="UTF-8" standalone="no"?>
<!-- Generator: Adobe Illustrator 16.0.0, SVG Export Plug-In . SVG Version: 6.00 Build 0)  -->

<svg
   xmlns:dc="http://purl.org/dc/elements/1.1/"
   xmlns:cc="http://creativecommons.org/ns#"
   xmlns:rdf="http://www.w3.org/1999/02/22-rdf-syntax-ns#"
   xmlns:svg="http://www.w3.org/2000/svg"
   xmlns="http://www.w3.org/2000/svg"
   xmlns:xlink="http://www.w3.org/1999/xlink"
   xmlns:sodipodi="http://sodipodi.sourceforge.net/DTD/sodipodi-0.dtd"
   xmlns:inkscape="http://www.inkscape.org/namespaces/inkscape"
   version="1.1"
   id="Layer_1"
   x="0px"
   y="0px"
   width="564.37079"
   height="290.74802"
   viewBox="0 0 564.37078 290.748"
   enable-background="new 0 0 841.89 595.28"
   xml:space="preserve"
   sodipodi:docname="gestmusic.svg"
   inkscape:version="0.92.4 (5da689c313, 2019-01-14)"><metadata
   id="metadata319"><rdf:RDF><cc:Work
       rdf:about=""><dc:format>image/svg+xml</dc:format><dc:type
         rdf:resource="http://purl.org/dc/dcmitype/StillImage" /><dc:title></dc:title></cc:Work></rdf:RDF></metadata><defs
   id="defs317" /><sodipodi:namedview
   pagecolor="#ffffff"
   bordercolor="#666666"
   borderopacity="1"
   objecttolerance="10"
   gridtolerance="10"
   guidetolerance="10"
   inkscape:pageopacity="0"
   inkscape:pageshadow="2"
   inkscape:window-width="1916"
   inkscape:window-height="1055"
   id="namedview315"
   showgrid="false"
   inkscape:pagecheckerboard="true"
   fit-margin-top="0"
   fit-margin-left="0"
   fit-margin-right="0"
   fit-margin-bottom="0"
   inkscape:zoom="0.39645207"
   inkscape:cx="-315.37478"
   inkscape:cy="189.10899"
   inkscape:window-x="1920"
   inkscape:window-y="0"
   inkscape:window-maximized="0"
   inkscape:current-layer="Layer_1" />
<polygon
   points="272.621,458.759 272.621,464.682 258.452,464.682 258.452,468.354 269.642,468.354 269.642,474.174 258.452,474.174 258.452,479.752 273.799,479.752 273.799,485.986 250.762,485.986 250.762,458.759 "
   id="polygon241"
   style="fill:#ffffff"
   transform="translate(-156.174,-196.00099)" />
<g
   id="g283"
   style="fill:#ffffff"
   transform="translate(-156.174,-196.00099)">
	<path
   d="m 289.042,485.986 v -10.635 c 0,-0.935 0.035,-2.252 -0.381,-3.118 -0.485,-1.039 -1.559,-1.628 -2.702,-1.628 -0.485,0 -1.005,0.104 -1.42,0.277 -1.801,0.728 -1.94,2.46 -1.94,4.123 v 10.98 h -7.172 v -20.924 h 7.103 v 2.46 c 1.836,-1.975 3.81,-2.875 6.512,-2.875 2.876,0 5.682,1.316 6.686,4.157 0.416,1.142 0.485,2.39 0.485,3.602 v 13.58 h -7.171 z"
   id="path243"
   style="fill:#ffffff"
   inkscape:connector-curvature="0" />
	<path
   d="m 313.411,485.986 -0.52,-1.455 c -1.802,1.317 -3.707,1.939 -5.89,1.939 -6.443,0 -9.352,-5.368 -9.352,-11.119 0,-1.455 0.172,-2.875 0.589,-4.261 1.212,-3.949 4.503,-6.548 8.66,-6.548 2.182,0 3.845,0.658 5.647,1.836 v -7.621 h 7.17 v 27.229 z m -8.522,-10.426 c 0,1.316 0.243,2.944 0.935,4.088 0.623,1.005 1.697,1.697 2.875,1.697 1.109,0 2.252,-0.555 2.945,-1.454 0.866,-1.074 1.039,-2.945 1.039,-4.297 0,-2.494 -0.658,-5.958 -3.879,-5.958 -3.258,0 -3.915,3.326 -3.915,5.924"
   id="path245"
   style="fill:#ffffff"
   inkscape:connector-curvature="0" />
	<path
   d="m 343.76,481.274 c -2.458,3.672 -6.339,5.475 -10.668,5.475 -6.756,0 -11.952,-4.573 -11.952,-11.467 0,-6.444 4.988,-10.946 11.328,-10.946 7.136,0 11.535,4.988 11.535,11.916 v 0.658 h -15.554 c -0.034,2.667 2.009,4.33 4.573,4.33 2.148,0 4.122,-1.108 5.231,-2.944 z m -15.276,-8.486 8.279,-0.035 c 0,-2.425 -1.94,-3.707 -4.227,-3.707 -2.353,0 -3.912,1.386 -4.052,3.742"
   id="path247"
   style="fill:#ffffff"
   inkscape:connector-curvature="0" />
	<path
   d="m 371.642,485.986 v -11.744 c 0,-1.489 0.035,-2.841 -1.559,-3.533 -0.45,-0.207 -0.935,-0.311 -1.42,-0.311 -0.692,0 -1.456,0.207 -2.01,0.658 -1.004,0.829 -0.969,2.182 -0.969,3.359 v 11.57 h -7.137 V 474.45 c 0,-2.044 -0.52,-3.845 -2.945,-3.845 -2.458,0 -3.047,1.801 -3.047,3.948 v 11.433 h -7.136 v -20.924 h 6.789 l -0.069,2.736 c 1.247,-2.355 3.984,-3.117 6.444,-3.117 1.904,0 4.052,0.347 5.369,1.836 0.312,0.382 0.589,0.832 0.866,1.281 0.208,-0.381 0.485,-0.727 0.762,-1.073 1.42,-1.628 3.706,-2.044 5.75,-2.044 2.287,0 4.85,0.589 6.27,2.528 1.11,1.525 1.178,3.499 1.178,5.3 v 13.477 z"
   id="path249"
   style="fill:#ffffff"
   inkscape:connector-curvature="0" />
	<path
   d="m 380.191,475.628 c 0,-6.478 4.399,-11.086 10.912,-11.086 6.582,0 11.294,4.644 11.294,11.259 0,6.408 -4.781,10.67 -11.052,10.67 -6.443,0 -11.154,-4.296 -11.154,-10.843 m 7.136,0.069 c 0,2.563 1.005,5.229 4.018,5.229 2.945,0 3.949,-2.735 3.949,-5.265 0,-2.702 -0.762,-5.577 -4.052,-5.577 -3.257,10e-4 -3.915,2.945 -3.915,5.613"
   id="path251"
   style="fill:#ffffff"
   inkscape:connector-curvature="0" />
	<rect
   x="403.814"
   y="458.75699"
   width="7.171"
   height="27.229"
   id="rect253"
   style="fill:#ffffff" />
	<path
   d="m 413.61,482.729 c -0.624,-0.555 -1.143,-1.213 -1.628,-1.871 1.94,-1.49 3.879,-2.91 5.854,-4.329 2.078,2.666 4.192,3.844 7.622,3.844 1.488,0 4.502,-0.312 4.502,-2.319 0,-0.901 -0.727,-1.422 -1.488,-1.698 -1.073,-0.415 -3.915,-0.589 -5.231,-0.762 -2.286,-0.312 -4.573,-0.763 -6.547,-1.976 -2.39,-1.489 -3.637,-3.776 -3.637,-6.581 0,-6.375 5.992,-8.661 11.466,-8.661 4.746,0 9.423,1.489 12.332,5.404 l -5.404,4.054 c -1.94,-2.218 -3.915,-3.568 -6.962,-3.568 -1.213,0 -3.604,0.381 -3.604,1.975 0,2.008 3.811,2.044 5.231,2.287 l 1.837,0.31 c 2.286,0.382 4.676,0.659 6.651,1.906 2.251,1.455 3.151,3.915 3.151,6.513 0,6.894 -6.686,9.249 -12.54,9.249 -3.915,-10e-4 -8.695,-1.074 -11.605,-3.777"
   id="path255"
   style="fill:#ffffff"
   inkscape:connector-curvature="0" />
	<path
   d="m 452.754,485.985 v -11.259 c 0,-2.147 -0.312,-4.469 -3.049,-4.469 -0.623,0 -1.281,0.209 -1.835,0.555 -1.871,1.108 -1.524,4.122 -1.524,5.958 v 9.215 h -7.172 v -27.228 h 7.172 v 8.105 c 1.524,-1.628 3.706,-2.217 5.889,-2.217 3.152,0 6.098,1.074 7.205,4.261 0.417,1.179 0.485,2.32 0.485,3.567 v 13.511 h -7.171 z"
   id="path257"
   style="fill:#ffffff"
   inkscape:connector-curvature="0" />
	<path
   d="m 461.682,458.757 h 7.102 v 3.95 h -7.102 z m 0,6.305 h 7.102 v 20.924 h -7.102 z"
   id="path259"
   style="fill:#ffffff"
   inkscape:connector-curvature="0" />
	<path
   d="M 484.152,485.985 V 475.35 c 0,-0.935 0.035,-2.252 -0.381,-3.118 -0.485,-1.039 -1.558,-1.628 -2.702,-1.628 -0.485,0 -1.004,0.105 -1.42,0.277 -1.801,0.728 -1.94,2.46 -1.94,4.123 v 10.98 h -7.171 V 465.06 h 7.103 v 2.46 c 1.836,-1.975 3.811,-2.875 6.512,-2.875 2.876,0 5.682,1.316 6.687,4.157 0.416,1.142 0.484,2.39 0.484,3.602 v 13.58 h -7.172 z"
   id="path261"
   style="fill:#ffffff"
   inkscape:connector-curvature="0" />
	<path
   d="m 515.361,481.274 c -2.459,3.672 -6.34,5.474 -10.669,5.474 -6.756,0 -11.952,-4.573 -11.952,-11.467 0,-6.443 4.988,-10.946 11.328,-10.946 7.136,0 11.536,4.988 11.536,11.917 v 0.658 h -15.556 c -0.034,2.666 2.01,4.329 4.573,4.329 2.148,0 4.122,-1.108 5.231,-2.944 z m -15.277,-8.487 8.279,-0.035 c 0,-2.425 -1.939,-3.707 -4.227,-3.707 -2.354,0 -3.913,1.387 -4.052,3.742"
   id="path263"
   style="fill:#ffffff"
   inkscape:connector-curvature="0" />
	<rect
   x="522.84497"
   y="458.75699"
   width="8.0369997"
   height="27.229"
   id="rect265"
   style="fill:#ffffff" />
	<path
   d="m 532.847,485.986 v -27.229 h 7.172 v 7.622 c 1.802,-1.179 3.464,-1.836 5.646,-1.836 4.121,0 7.481,2.598 8.66,6.546 0.415,1.387 0.554,2.806 0.554,4.261 0,5.752 -2.875,11.121 -9.319,11.121 -2.217,0 -4.122,-0.625 -5.889,-1.94 l -0.52,1.456 h -6.304 z m 7.032,-10.393 c 0,1.352 0.174,3.222 1.039,4.296 0.693,0.901 1.802,1.455 2.945,1.455 1.178,0 2.251,-0.692 2.876,-1.698 0.692,-1.144 0.899,-2.771 0.899,-4.087 0,-2.598 -0.624,-5.924 -3.88,-5.924 -3.22,0 -3.879,3.464 -3.879,5.958"
   id="path267"
   style="fill:#ffffff"
   inkscape:connector-curvature="0" />
	<path
   d="m 578.69,481.273 c -2.459,3.672 -6.339,5.475 -10.669,5.475 -6.754,0 -11.951,-4.572 -11.951,-11.468 0,-6.442 4.989,-10.944 11.328,-10.944 7.136,0 11.535,4.986 11.535,11.915 v 0.658 H 563.38 c -0.034,2.667 2.01,4.329 4.572,4.329 2.147,0 4.122,-1.106 5.231,-2.942 z m -15.275,-8.487 8.279,-0.033 c 0,-2.426 -1.94,-3.707 -4.227,-3.707 -2.355,0 -3.912,1.386 -4.052,3.74"
   id="path269"
   style="fill:#ffffff"
   inkscape:connector-curvature="0" />
	<path
   d="m 580.499,486.02 v -20.992 h 6.166 v 2.807 c 0.312,-0.485 0.623,-0.97 1.039,-1.352 1.282,-1.247 3.083,-1.801 4.815,-1.801 0.797,0 1.559,0.139 2.32,0.346 v 5.89 c -0.865,-0.243 -1.73,-0.347 -2.598,-0.347 -1.87,0 -3.706,0.416 -5.092,1.731 v 13.718 z"
   id="path271"
   style="fill:#ffffff"
   inkscape:connector-curvature="0" />
	<path
   d="m 596.278,458.757 h 7.101 v 3.95 h -7.101 z m 0,6.27 h 7.101 v 20.957 h -7.101 z"
   id="path273"
   style="fill:#ffffff"
   inkscape:connector-curvature="0" />
	<path
   d="m 622.632,465.824 c 2.529,1.768 2.702,4.504 2.702,7.31 v 7.517 c 0,1.802 0.104,3.603 0.623,5.334 h -6.65 l -0.276,-2.458 c -1.423,2.286 -3.776,2.841 -6.307,2.841 -4.295,0 -7.793,-1.871 -7.793,-6.617 0,-5.784 5.092,-6.34 9.561,-7.31 1.281,-0.277 2.632,-0.45 3.845,-1.004 v -0.451 c 0,-1.836 -1.108,-2.528 -2.84,-2.528 -2.009,0 -3.015,0.865 -3.117,2.91 l -6.79,-0.035 c 0.104,-2.252 0.519,-4.053 2.425,-5.438 1.905,-1.352 5.196,-1.801 7.482,-1.801 2.251,-10e-4 5.265,0.414 7.135,1.73 m -5.369,14.446 c 1.108,-1.073 1.247,-2.597 1.247,-4.053 v -0.728 c -0.659,0.276 -1.351,0.485 -2.044,0.693 -1.628,0.484 -4.504,0.865 -4.504,3.117 0,1.421 1.074,2.078 2.392,2.078 1.038,10e-4 2.147,-0.38 2.909,-1.107"
   id="path275"
   style="fill:#ffffff"
   inkscape:connector-curvature="0" />
	<path
   d="m 209.8,354.091 v -97.036 c 0,-18.119 -8.948,-27.178 -26.844,-27.178 -17.857,0 -26.782,9.059 -26.782,27.178 v 79.154 c 0,18.164 8.925,27.243 26.782,27.243 2.987,0 5.716,-0.902 8.177,-2.703 v 5.306 33.964 c 0,5.851 -2.703,8.775 -8.111,8.775 -5.455,0 -8.181,-2.925 -8.181,-8.775 v -6.647 -12.069 c 0,-2.411 -2.912,-3.62 -4.62,-1.919 l -14.047,5.809 v 14.827 c 0,18.118 8.948,27.2 26.848,27.243 17.853,0 26.778,-9.082 26.778,-27.243 v -45.925 c 0,-0.002 0,-0.003 0,-0.004 m -18.667,-17.748 c -0.043,5.761 -2.768,8.641 -8.177,8.641 -5.412,0 -8.115,-2.925 -8.115,-8.774 v -79.154 c 0,-5.851 2.683,-8.775 8.046,-8.775 h 0.134 c 5.409,0.045 8.112,2.97 8.112,8.775 z"
   id="path277"
   style="fill:#ffffff"
   inkscape:connector-curvature="0" />
	<path
   d="m 243.775,305.867 c -2.459,0 -4.452,1.994 -4.452,4.453 v 25.889 c 0,5.85 2.703,8.774 8.115,8.774 5.451,0 8.177,-2.925 8.177,-8.774 v -8.612 c 0,0 -0.026,-1.604 0.369,-2.832 0.515,-1.596 1.514,-2.251 1.818,-2.524 l 9.046,-7.993 c 2.864,-2.583 7.434,-0.551 7.434,3.306 v 6.83 11.826 c 0,18.118 -8.948,27.201 -26.844,27.243 -17.857,0 -26.783,-9.079 -26.783,-27.243 v -79.154 c 0,-18.119 8.926,-27.178 26.783,-27.178 17.896,0 26.844,9.059 26.844,27.178 v 44.36 c 0,2.459 -1.993,4.452 -4.452,4.452 h -26.055 z m 0,-18.471 h 7.388 c 2.458,0 4.452,-1.993 4.452,-4.452 v -25.889 c 0,-5.805 -2.703,-8.73 -8.112,-8.775 h -0.134 c -5.363,0 -8.046,2.925 -8.046,8.775 v 25.889 c 0,2.459 1.993,4.452 4.452,4.452"
   id="path279"
   style="fill:#ffffff"
   inkscape:connector-curvature="0" />
	<path
   d="m 283.88,257.055 c 0,-18.119 8.929,-27.178 26.782,-27.178 17.897,0 26.848,9.059 26.848,27.178 v 9.451 c 0,1.289 -0.548,2.517 -1.508,3.377 l -9.6,8.601 c -2.92,2.616 -7.56,0.544 -7.56,-3.377 v -6.576 -11.476 c 0,-5.804 -2.705,-8.729 -8.114,-8.775 h -0.131 c -5.366,0 -8.049,2.925 -8.049,8.775 v 11.742 c 0,5.759 5.827,12.818 17.481,21.171 11.654,8.315 17.481,18.272 17.481,29.884 v 16.356 c 0,18.164 -8.928,27.243 -26.782,27.243 -17.897,-0.042 -26.848,-9.124 -26.848,-27.243 v -9.809 c 0,-1.284 0.544,-2.507 1.497,-3.367 l 9.599,-8.66 c 2.917,-2.632 7.572,-0.562 7.572,3.366 v 6.645 11.825 c 0,5.851 2.728,8.775 8.18,8.775 5.409,0 8.114,-2.925 8.114,-8.775 v -14.774 c 0,-6.242 -5.827,-13.543 -17.481,-21.9 -11.654,-8.311 -17.481,-18.426 -17.481,-30.341 z"
   id="path281"
   style="fill:#ffffff"
   inkscape:connector-curvature="0" />
</g>
<g
   id="g298"
   transform="translate(-156.174,-196.00099)">
	<defs
   id="defs286">
		<path
   id="SVGID_1_"
   d="m 167.722,374.703 c -1.892,0 -3.706,0.751 -5.044,2.089 l -4.4,4.4 c -4.494,4.494 -1.312,12.178 5.044,12.178 H 705.42 c 1.908,0 3.736,-0.765 5.077,-2.122 l 8.736,-8.85 c 2.818,-2.856 0.796,-7.695 -3.217,-7.695 z"
   inkscape:connector-curvature="0" />
	</defs>
	<clipPath
   id="SVGID_2_">
		<use
   xlink:href="#SVGID_1_"
   overflow="visible"
   id="use288"
   style="overflow:visible"
   x="0"
   y="0"
   width="100%"
   height="100%" />
	</clipPath>
	
		<linearGradient
   id="SVGID_3_"
   gradientUnits="userSpaceOnUse"
   x1="0"
   y1="595.28119"
   x2="1"
   y2="595.28119"
   gradientTransform="matrix(564.3715,0,0,-564.3715,156,336343.5)">
		<stop
   offset="0"
   style="stop-color:#2D2E83"
   id="stop291" />
		<stop
   offset="1"
   style="stop-color:#009FE3"
   id="stop293" />
	</linearGradient>
	<rect
   x="153.784"
   y="374.703"
   clip-path="url(#SVGID_2_)"
   width="568.26801"
   height="18.667"
   id="rect296"
   style="fill:#ffffff" />
</g>
<g
   id="g312"
   transform="translate(-156.174,-196.00099)">
	<path
   d="m 424.962,255.734 c -0.395,-4.925 -3.079,-7.409 -8.046,-7.455 h -0.134 c -5.363,0 -8.046,2.925 -8.046,8.775 v 98.982 c 0,2.929 -2.375,5.304 -5.305,5.304 h -8.058 c -2.93,0 -5.305,-2.375 -5.305,-5.304 v -98.982 c 0,-18.118 8.925,-27.177 26.783,-27.177 6.021,0 11.042,1.032 15.059,3.099 1.519,0.781 3.312,0.778 4.83,-0.007 3.985,-2.062 8.986,-3.092 15.004,-3.092 17.896,0 26.845,9.059 26.845,27.177 v 98.982 c 0,2.929 -2.375,5.304 -5.305,5.304 h -8.059 c -2.93,0 -5.305,-2.375 -5.305,-5.304 v -98.982 c 0,-5.804 -2.702,-8.729 -8.111,-8.775 h -0.131 c -4.928,0 -7.589,2.487 -7.983,7.455 v 100.302 c 0,2.929 -2.375,5.304 -5.306,5.304 h -8.123 c -2.93,0 -5.305,-2.375 -5.305,-5.304 V 255.734 Z"
   id="path300"
   style="fill:#ffffff"
   inkscape:connector-curvature="0" />
	<path
   d="m 544.498,336.209 c 0,18.119 -8.947,27.201 -26.844,27.243 -17.857,0 -26.783,-9.079 -26.783,-27.243 v -94.077 c 0,-1.521 0.706,-2.956 1.91,-3.885 l 8.856,-6.83 c 3.225,-2.488 7.901,-0.189 7.901,3.884 v 100.908 c 0,5.85 2.703,8.774 8.115,8.774 5.451,0 8.176,-2.925 8.176,-8.774 v -94.206 c 0,-1.529 0.714,-2.971 1.93,-3.899 l 8.855,-6.762 c 3.229,-2.466 7.883,-0.163 7.883,3.899 v 100.968 z"
   id="path302"
   style="fill:#ffffff"
   inkscape:connector-curvature="0" />
	<path
   d="m 553.477,257.055 c 0,-18.119 8.925,-27.178 26.782,-27.178 17.896,0 26.845,9.059 26.845,27.178 v 8.701 c 0,1.769 -0.747,3.455 -2.056,4.645 l -6.117,5.556 c -4.032,3.662 -10.495,0.801 -10.495,-4.645 v -2.779 -11.478 c 0,-5.804 -2.703,-8.729 -8.111,-8.775 h -0.134 c -5.363,0 -8.046,2.925 -8.046,8.775 v 11.742 c 0,5.759 5.827,12.818 17.48,21.171 11.651,8.315 17.479,18.272 17.479,29.884 v 16.356 c 0,18.164 -8.925,27.243 -26.779,27.243 -17.899,-0.042 -26.848,-9.124 -26.848,-27.243 v -9.034 c 0,-1.777 0.753,-3.471 2.072,-4.66 l 6.116,-5.519 c 4.036,-3.642 10.479,-0.777 10.479,4.659 v 2.729 11.825 c 0,5.851 2.725,8.775 8.18,8.775 5.408,0 8.111,-2.925 8.111,-8.775 v -14.774 c 0,-6.242 -5.827,-13.543 -17.479,-21.9 -11.653,-8.311 -17.48,-18.426 -17.48,-30.341 v -12.138 z"
   id="path304"
   style="fill:#ffffff"
   inkscape:connector-curvature="0" />
	<path
   d="m 635.977,234.459 v 122.308 c 0,2.526 -2.048,4.574 -4.574,4.574 h -9.52 c -2.526,0 -4.574,-2.048 -4.574,-4.574 V 241.585 c 0,-1.442 0.68,-2.798 1.833,-3.662 l 9.521,-7.126 c 3.015,-2.257 7.314,-0.105 7.314,3.662"
   id="path306"
   style="fill:#ffffff"
   inkscape:connector-curvature="0" />
	<path
   d="m 701.812,336.209 c 0,18.119 -8.948,27.201 -26.844,27.243 -17.858,0 -26.783,-9.079 -26.783,-27.243 v -79.154 c 0,-18.119 8.925,-27.178 26.783,-27.178 17.896,0 26.844,9.059 26.844,27.178 V 290.8 c 0,1.653 -0.698,3.229 -1.921,4.341 l -6.94,6.303 c -3.767,3.422 -9.807,0.748 -9.807,-4.341 v -3.708 -36.34 c 0,-5.804 -2.702,-8.729 -8.111,-8.775 h -0.134 c -5.363,0 -8.046,2.925 -8.046,8.775 v 79.154 c 0,5.85 2.703,8.774 8.115,8.774 5.45,0 8.176,-2.925 8.176,-8.774 v -16.033 c 0,-1.634 0.682,-3.193 1.88,-4.303 l 6.938,-6.427 c 3.755,-3.477 9.85,-0.813 9.85,4.303 v 3.864 z"
   id="path308"
   style="fill:#ffffff"
   inkscape:connector-curvature="0" />
	<path
   d="m 372.369,231.922 h 9.534 c 2.713,0 4.911,2.199 4.911,4.911 v 8.581 c 0,2.712 -2.198,4.911 -4.911,4.911 h -9.534 V 355.91 c 0,2.998 -2.431,5.43 -5.429,5.43 h -7.809 c -2.999,0 -5.43,-2.432 -5.43,-5.43 V 250.326 h -8.964 c -2.446,0 -4.428,-1.983 -4.428,-4.428 v -9.547 c 0,-2.445 1.982,-4.428 4.428,-4.428 h 8.964 v -23.646 c 0,-0.782 0.329,-1.529 0.907,-2.057 l 9.796,-8.963 c 3.051,-2.791 7.965,-0.627 7.965,3.508 z"
   id="path310"
   style="fill:#ffffff"
   inkscape:connector-curvature="0" />
</g>
</svg>