<?xml version="1.0" encoding="UTF-8" standalone="no"?>
<svg width="99px" height="63px" viewBox="0 0 99 63" version="1.1" xmlns="http://www.w3.org/2000/svg" xmlns:xlink="http://www.w3.org/1999/xlink">
    <!-- Generator: Sketch 43.2 (39069) - http://www.bohemiancoding.com/sketch -->
    <title>Page 1</title>
    <desc>Created with Sketch.</desc>
    <defs>
        <polygon id="path-1" points="0 62.469691 98.8181708 62.469691 98.8181708 0.807213905 0 0.807213905"/>
    </defs>
    <g id="Page-1" stroke="none" stroke-width="1" fill="none" fill-rule="evenodd">
        <g id="TV" transform="translate(-105.000000, -3766.000000)">
            <g id="Group-3" transform="translate(0.000000, 3680.000000)">
                <g id="Group-6">
                    <g id="Page-1" transform="translate(105.000000, 86.000000)">
                        <path d="M36.8045796,21.7844401 L50.5785633,8.09136834 C49.943618,7.02453107 49.1270879,5.96367382 48.0820738,4.92673669 C42.0741445,-1.04492086 35.4697515,0.00756434911 30.7569663,4.69590754 L13.5761645,21.7844401 C8.86217672,26.4727833 7.80152948,33.0448358 13.8058511,39.0164933 C19.8077677,44.9869549 26.4181735,43.9356657 31.1285536,39.2485185 L34.5377769,35.8614297 C31.5217867,30.8166768 32.909527,25.6559112 36.8045796,21.7844401 Z" id="Fill-1" fill="#FFFFFF"/>
                        <path d="M60.0346784,21.7844401 L73.8062569,8.09136834 C73.1749192,7.02453107 72.3559841,5.96367382 71.3073624,4.92673669 C65.3054458,-1.04492086 58.6986477,0.00756434911 53.987065,4.69590754 L50.5790443,8.09136834 C53.5938318,13.1337293 52.2036865,18.2849268 48.3122415,22.1563979 L34.5382579,35.8614297 C35.1720006,36.921091 35.9885306,37.9759682 37.0347473,39.0164933 C43.0414741,44.9869549 49.6422595,43.9356657 54.3562472,39.2485185 L57.7654705,35.8614297 C54.753088,30.8166768 56.1408283,25.6559112 60.0346784,21.7844401" id="Fill-3" fill="#FFFFFF"/>
                        <path d="M50.5786835,8.09112914 L36.8046999,21.7842009 C32.9096473,25.656868 31.521907,30.8164376 34.5378971,35.8611905 L48.3118807,22.1561587 C52.2045283,18.2846876 53.5934711,13.1334901 50.5786835,8.09112914" id="Fill-5" fill="#6F6F6E"/>
                        <path d="M94.5374611,4.92709549 C88.5331395,-1.04456206 81.929949,0.00792315089 77.2159612,4.69626635 L73.8067379,8.09172714 C76.822728,13.1328921 75.4349878,18.2852856 71.5423402,22.1555607 L57.7659515,35.8605925 C58.4008968,36.9214498 59.2198319,37.976327 60.262441,39.0168521 C66.2667626,44.9873137 72.8735607,43.9360245 77.5875485,39.2476813 L94.7707554,22.1555607 C99.4811355,17.4696095 100.54539,10.901145 94.5374611,4.92709549" id="Fill-7" fill="#FFFFFF"/>
                        <path d="M60.0347986,21.7842009 C56.1409485,25.656868 54.7532083,30.8164376 57.7655908,35.8611905 L71.5419795,22.1561587 C75.434627,18.2846876 76.8223673,13.1334901 73.8063771,8.09112914 L60.0347986,21.7842009 Z" id="Fill-9" fill="#6F6F6E"/>
                        <polygon id="Fill-11" fill="#FEFEFE" points="0 50.1452088 2.88611495 50.1452088 6.0909051 55.2712902 9.29569524 50.1452088 12.1806076 50.1452088 12.1806076 62.2643368 9.5205717 62.2643368 9.5205717 54.3527576 6.0909051 59.5290712 6.02235987 59.5290712 2.6287697 54.4053819 2.6287697 62.2643368 0 62.2643368"/>
                        <polygon id="Fill-13" fill="#FEFEFE" points="15.8926325 50.1452088 25.081301 50.1452088 25.081301 52.5156925 18.5526684 52.5156925 18.5526684 54.9758767 24.2936321 54.9758767 24.2936321 57.3463604 18.5526684 57.3463604 18.5526684 59.890265 25.1618717 59.890265 25.1618717 62.2643368 15.8926325 62.2643368"/>
                        <path d="M31.012628,59.85582 L31.012628,52.5542039 L33.084618,52.5542039 C35.2780653,52.5542039 36.7535916,54.0563874 36.7535916,56.204414 L36.7535916,56.2390982 C36.7535916,58.3859288 35.2780653,59.85582 33.084618,59.85582 L31.012628,59.85582 Z M28.3321487,62.264576 L33.084618,62.264576 C36.9111254,62.264576 39.5567308,59.6154229 39.5567308,56.204414 L39.5567308,56.1697298 C39.5567308,52.7611129 36.9111254,50.145448 33.084618,50.145448 L28.3321487,50.145448 L28.3321487,62.264576 Z" id="Fill-15" fill="#FEFEFE"/>
                        <mask id="mask-2" fill="white">
                            <use xlink:href="#path-1"/>
                        </mask>
                        <g id="Clip-18"/>
                        <polygon id="Fill-17" fill="#FEFEFE" mask="url(#mask-2)" points="41.890756 62.263978 44.5712352 62.263978 44.5712352 50.14485 41.890756 50.14485"/>
                        <path d="M51.4606321,57.1927933 L53.0816667,53.2603258 L54.6978911,57.1927933 L51.4606321,57.1927933 Z M46.6576558,62.2638584 L49.3898447,62.2638584 L50.5058091,59.5465329 L55.6563217,59.5465329 L56.7686786,62.2638584 L59.5718177,62.2638584 L54.3479496,50.058618 L51.8815239,50.058618 L46.6576558,62.2638584 Z" id="Fill-19" fill="#FEFEFE" mask="url(#mask-2)"/>
                        <path d="M64.3550722,56.2560814 L64.3550722,52.5532471 L66.4270622,52.5532471 C67.7703082,52.5532471 68.6024714,53.1907183 68.6024714,54.3879202 L68.6024714,54.4190163 C68.6024714,55.4595415 67.8220178,56.2560814 66.4823794,56.2560814 L64.3550722,56.2560814 Z M61.6782006,62.2636192 L64.3550722,62.2636192 L64.3550722,58.6265652 L66.3945934,58.6265652 C69.1255797,58.6265652 71.3190271,57.17581 71.3190271,54.3699801 L71.3190271,54.3329039 C71.3190271,51.8571717 69.5621046,50.1456872 66.6567489,50.1456872 L61.6782006,50.1456872 L61.6782006,62.2636192 Z" id="Fill-20" fill="#FEFEFE" mask="url(#mask-2)"/>
                        <path d="M76.3289619,56.0306343 L76.3289619,52.5538451 L78.9950106,52.5538451 C80.2973699,52.5538451 81.0982668,53.138692 81.0982668,54.2832697 L81.0982668,54.3179538 C81.0982668,55.3381469 80.3466744,56.0306343 79.0455176,56.0306343 L76.3289619,56.0306343 Z M73.6484826,62.2642172 L76.3289619,62.2642172 L76.3289619,58.386766 L78.4045595,58.386766 L78.4358258,58.386766 L81.0465573,62.2642172 L84.177992,62.2642172 L81.204091,57.9346757 C82.7505676,57.3629849 83.8172276,56.1346868 83.8172276,54.1792172 L83.8172276,54.144533 C83.8172276,53.0023473 83.4468429,52.0527186 82.7698084,51.3733873 C81.9689115,50.5768473 80.7687687,50.1450892 79.2186845,50.1450892 L73.6484826,50.1450892 L73.6484826,62.2642172 Z" id="Fill-21" fill="#FEFEFE" mask="url(#mask-2)"/>
                        <path d="M92.3589253,60.0099852 C90.202757,60.0099852 88.6707109,58.2793646 88.6707109,56.2042944 L88.6707109,56.1696102 C88.6707109,54.0921479 90.165478,52.3974075 92.3240514,52.3974075 C94.4802198,52.3974075 96.0122658,54.1268321 96.0122658,56.2042944 L96.0122658,56.2389786 C96.0122658,58.3164408 94.5174988,60.0099852 92.3589253,60.0099852 M92.3240514,62.4701694 C96.0820136,62.4701694 98.8178101,59.6463994 98.8178101,56.2042944 L98.8178101,56.1696102 C98.8178101,52.7239172 96.1168875,49.9396154 92.3589253,49.9396154 C88.5997606,49.9396154 85.8675718,52.7609933 85.8675718,56.2042944 L85.8675718,56.2389786 C85.8675718,59.6858676 88.5660893,62.4701694 92.3240514,62.4701694" id="Fill-22" fill="#FEFEFE" mask="url(#mask-2)"/>
                    </g>
                </g>
            </g>
        </g>
    </g>
</svg>